<mxfile host="65bd71144e">
    <diagram name="PÃ¡gina-1" id="7hymtEN-tO1NFha_uqfa">
        <mxGraphModel dx="549" dy="657" grid="1" gridSize="10" guides="1" tooltips="1" connect="1" arrows="1" fold="1" page="1" pageScale="1" pageWidth="1400" pageHeight="850" math="0" shadow="0">
            <root>
                <mxCell id="0"/>
                <mxCell id="1" parent="0"/>
                <mxCell id="VPPW3XwU0snODaN7bdkU-1" value=".versionador" style="swimlane;fontSize=25;" parent="1" vertex="1" collapsed="1">
                    <mxGeometry x="10" y="20" width="190" height="40" as="geometry">
                        <mxRectangle x="10" y="20" width="1340" height="830" as="alternateBounds"/>
                    </mxGeometry>
                </mxCell>
                <mxCell id="VPPW3XwU0snODaN7bdkU-2" value="logs" style="swimlane;" parent="VPPW3XwU0snODaN7bdkU-1" vertex="1">
                    <mxGeometry x="30" y="40" width="410" height="290" as="geometry"/>
                </mxCell>
                <mxCell id="VPPW3XwU0snODaN7bdkU-7" value="branch-name" style="swimlane;" parent="VPPW3XwU0snODaN7bdkU-2" vertex="1">
                    <mxGeometry x="40" y="50" width="200" height="195" as="geometry">
                        <mxRectangle x="40" y="50" width="120" height="30" as="alternateBounds"/>
                    </mxGeometry>
                </mxCell>
                <mxCell id="VPPW3XwU0snODaN7bdkU-3" value="log.txt" style="shape=note;whiteSpace=wrap;html=1;backgroundOutline=1;darkOpacity=0.05;size=24;" parent="VPPW3XwU0snODaN7bdkU-7" vertex="1">
                    <mxGeometry x="10" y="35" width="70" height="85" as="geometry"/>
                </mxCell>
                <mxCell id="VPPW3XwU0snODaN7bdkU-6" value="snapshots" style="swimlane;" parent="VPPW3XwU0snODaN7bdkU-1" vertex="1">
                    <mxGeometry x="500" y="40" width="710" height="490" as="geometry"/>
                </mxCell>
                <mxCell id="VPPW3XwU0snODaN7bdkU-8" value="branch-name" style="swimlane;" parent="VPPW3XwU0snODaN7bdkU-6" vertex="1">
                    <mxGeometry x="20" y="50" width="610" height="280" as="geometry">
                        <mxRectangle x="20" y="50" width="120" height="30" as="alternateBounds"/>
                    </mxGeometry>
                </mxCell>
                <mxCell id="VPPW3XwU0snODaN7bdkU-10" value="v1.0.0" style="swimlane;" parent="VPPW3XwU0snODaN7bdkU-8" vertex="1">
                    <mxGeometry x="20" y="40" width="200" height="200" as="geometry"/>
                </mxCell>
                <mxCell id="VPPW3XwU0snODaN7bdkU-11" value="Files" style="swimlane;fontStyle=0;childLayout=stackLayout;horizontal=1;startSize=26;fillColor=none;horizontalStack=0;resizeParent=1;resizeParentMax=0;resizeLast=0;collapsible=1;marginBottom=0;html=1;" parent="VPPW3XwU0snODaN7bdkU-10" vertex="1">
                    <mxGeometry x="20" y="50" width="140" height="104" as="geometry"/>
                </mxCell>
                <mxCell id="VPPW3XwU0snODaN7bdkU-12" value="File&amp;nbsp;1" style="text;strokeColor=none;fillColor=none;align=left;verticalAlign=top;spacingLeft=4;spacingRight=4;overflow=hidden;rotatable=0;points=[[0,0.5],[1,0.5]];portConstraint=eastwest;whiteSpace=wrap;html=1;" parent="VPPW3XwU0snODaN7bdkU-11" vertex="1">
                    <mxGeometry y="26" width="140" height="26" as="geometry"/>
                </mxCell>
                <mxCell id="VPPW3XwU0snODaN7bdkU-13" value="File&amp;nbsp;2" style="text;strokeColor=none;fillColor=none;align=left;verticalAlign=top;spacingLeft=4;spacingRight=4;overflow=hidden;rotatable=0;points=[[0,0.5],[1,0.5]];portConstraint=eastwest;whiteSpace=wrap;html=1;" parent="VPPW3XwU0snODaN7bdkU-11" vertex="1">
                    <mxGeometry y="52" width="140" height="26" as="geometry"/>
                </mxCell>
                <mxCell id="VPPW3XwU0snODaN7bdkU-14" value="File&amp;nbsp;3" style="text;strokeColor=none;fillColor=none;align=left;verticalAlign=top;spacingLeft=4;spacingRight=4;overflow=hidden;rotatable=0;points=[[0,0.5],[1,0.5]];portConstraint=eastwest;whiteSpace=wrap;html=1;" parent="VPPW3XwU0snODaN7bdkU-11" vertex="1">
                    <mxGeometry y="78" width="140" height="26" as="geometry"/>
                </mxCell>
                <mxCell id="VPPW3XwU0snODaN7bdkU-21" value="v2.0.0" style="swimlane;" parent="VPPW3XwU0snODaN7bdkU-8" vertex="1">
                    <mxGeometry x="340" y="38" width="200" height="202" as="geometry"/>
                </mxCell>
                <mxCell id="VPPW3XwU0snODaN7bdkU-22" value="Files" style="swimlane;fontStyle=0;childLayout=stackLayout;horizontal=1;startSize=26;fillColor=none;horizontalStack=0;resizeParent=1;resizeParentMax=0;resizeLast=0;collapsible=1;marginBottom=0;html=1;" parent="VPPW3XwU0snODaN7bdkU-21" vertex="1">
                    <mxGeometry x="20" y="50" width="140" height="78" as="geometry"/>
                </mxCell>
                <mxCell id="VPPW3XwU0snODaN7bdkU-23" value="File&amp;nbsp;1*" style="text;strokeColor=none;fillColor=none;align=left;verticalAlign=top;spacingLeft=4;spacingRight=4;overflow=hidden;rotatable=0;points=[[0,0.5],[1,0.5]];portConstraint=eastwest;whiteSpace=wrap;html=1;" parent="VPPW3XwU0snODaN7bdkU-22" vertex="1">
                    <mxGeometry y="26" width="140" height="26" as="geometry"/>
                </mxCell>
                <mxCell id="VPPW3XwU0snODaN7bdkU-24" value="File&amp;nbsp;2*" style="text;strokeColor=none;fillColor=none;align=left;verticalAlign=top;spacingLeft=4;spacingRight=4;overflow=hidden;rotatable=0;points=[[0,0.5],[1,0.5]];portConstraint=eastwest;whiteSpace=wrap;html=1;" parent="VPPW3XwU0snODaN7bdkU-22" vertex="1">
                    <mxGeometry y="52" width="140" height="26" as="geometry"/>
                </mxCell>
                <mxCell id="VPPW3XwU0snODaN7bdkU-26" style="edgeStyle=orthogonalEdgeStyle;rounded=0;orthogonalLoop=1;jettySize=auto;html=1;exitX=0.75;exitY=0;exitDx=0;exitDy=0;entryX=0.746;entryY=-0.067;entryDx=0;entryDy=0;entryPerimeter=0;" parent="VPPW3XwU0snODaN7bdkU-21" source="VPPW3XwU0snODaN7bdkU-22" target="VPPW3XwU0snODaN7bdkU-22" edge="1">
                    <mxGeometry relative="1" as="geometry"/>
                </mxCell>
                <mxCell id="VPPW3XwU0snODaN7bdkU-28" value=".versionador" style="swimlane;fontSize=25;" parent="1" vertex="1">
                    <mxGeometry x="20" y="140" width="1340" height="830" as="geometry">
                        <mxRectangle x="10" y="50" width="190" height="40" as="alternateBounds"/>
                    </mxGeometry>
                </mxCell>
                <mxCell id="VPPW3XwU0snODaN7bdkU-29" value="logs" style="swimlane;" parent="VPPW3XwU0snODaN7bdkU-28" vertex="1">
                    <mxGeometry x="20" y="60" width="410" height="290" as="geometry"/>
                </mxCell>
                <mxCell id="VPPW3XwU0snODaN7bdkU-31" value="log.txt" style="shape=note;whiteSpace=wrap;html=1;backgroundOutline=1;darkOpacity=0.05;size=24;" parent="VPPW3XwU0snODaN7bdkU-29" vertex="1">
                    <mxGeometry x="30" y="40" width="70" height="85" as="geometry"/>
                </mxCell>
                <mxCell id="VPPW3XwU0snODaN7bdkU-32" value="snapshots" style="swimlane;" parent="VPPW3XwU0snODaN7bdkU-28" vertex="1">
                    <mxGeometry x="500" y="60" width="710" height="290" as="geometry">
                        <mxRectangle x="500" y="60" width="100" height="30" as="alternateBounds"/>
                    </mxGeometry>
                </mxCell>
                <mxCell id="VPPW3XwU0snODaN7bdkU-34" value="texto-do-commit" style="swimlane;" parent="VPPW3XwU0snODaN7bdkU-32" vertex="1">
                    <mxGeometry x="40" y="60" width="200" height="200" as="geometry"/>
                </mxCell>
                <mxCell id="VPPW3XwU0snODaN7bdkU-35" value="Files" style="swimlane;fontStyle=0;childLayout=stackLayout;horizontal=1;startSize=26;fillColor=none;horizontalStack=0;resizeParent=1;resizeParentMax=0;resizeLast=0;collapsible=1;marginBottom=0;html=1;" parent="VPPW3XwU0snODaN7bdkU-34" vertex="1">
                    <mxGeometry x="30" y="55" width="140" height="104" as="geometry"/>
                </mxCell>
                <mxCell id="VPPW3XwU0snODaN7bdkU-36" value="File&amp;nbsp;1" style="text;strokeColor=none;fillColor=none;align=left;verticalAlign=top;spacingLeft=4;spacingRight=4;overflow=hidden;rotatable=0;points=[[0,0.5],[1,0.5]];portConstraint=eastwest;whiteSpace=wrap;html=1;" parent="VPPW3XwU0snODaN7bdkU-35" vertex="1">
                    <mxGeometry y="26" width="140" height="26" as="geometry"/>
                </mxCell>
                <mxCell id="VPPW3XwU0snODaN7bdkU-37" value="File&amp;nbsp;2" style="text;strokeColor=none;fillColor=none;align=left;verticalAlign=top;spacingLeft=4;spacingRight=4;overflow=hidden;rotatable=0;points=[[0,0.5],[1,0.5]];portConstraint=eastwest;whiteSpace=wrap;html=1;" parent="VPPW3XwU0snODaN7bdkU-35" vertex="1">
                    <mxGeometry y="52" width="140" height="26" as="geometry"/>
                </mxCell>
                <mxCell id="VPPW3XwU0snODaN7bdkU-38" value="File&amp;nbsp;3" style="text;strokeColor=none;fillColor=none;align=left;verticalAlign=top;spacingLeft=4;spacingRight=4;overflow=hidden;rotatable=0;points=[[0,0.5],[1,0.5]];portConstraint=eastwest;whiteSpace=wrap;html=1;" parent="VPPW3XwU0snODaN7bdkU-35" vertex="1">
                    <mxGeometry y="78" width="140" height="26" as="geometry"/>
                </mxCell>
                <mxCell id="VPPW3XwU0snODaN7bdkU-39" value="textoo-do-commit" style="swimlane;" parent="VPPW3XwU0snODaN7bdkU-32" vertex="1">
                    <mxGeometry x="320" y="60" width="200" height="202" as="geometry"/>
                </mxCell>
                <mxCell id="VPPW3XwU0snODaN7bdkU-40" value="Files" style="swimlane;fontStyle=0;childLayout=stackLayout;horizontal=1;startSize=26;fillColor=none;horizontalStack=0;resizeParent=1;resizeParentMax=0;resizeLast=0;collapsible=1;marginBottom=0;html=1;" parent="VPPW3XwU0snODaN7bdkU-39" vertex="1">
                    <mxGeometry x="20" y="50" width="140" height="78" as="geometry"/>
                </mxCell>
                <mxCell id="VPPW3XwU0snODaN7bdkU-41" value="File&amp;nbsp;1*" style="text;strokeColor=none;fillColor=none;align=left;verticalAlign=top;spacingLeft=4;spacingRight=4;overflow=hidden;rotatable=0;points=[[0,0.5],[1,0.5]];portConstraint=eastwest;whiteSpace=wrap;html=1;" parent="VPPW3XwU0snODaN7bdkU-40" vertex="1">
                    <mxGeometry y="26" width="140" height="26" as="geometry"/>
                </mxCell>
                <mxCell id="VPPW3XwU0snODaN7bdkU-42" value="File&amp;nbsp;2*" style="text;strokeColor=none;fillColor=none;align=left;verticalAlign=top;spacingLeft=4;spacingRight=4;overflow=hidden;rotatable=0;points=[[0,0.5],[1,0.5]];portConstraint=eastwest;whiteSpace=wrap;html=1;" parent="VPPW3XwU0snODaN7bdkU-40" vertex="1">
                    <mxGeometry y="52" width="140" height="26" as="geometry"/>
                </mxCell>
                <mxCell id="VPPW3XwU0snODaN7bdkU-43" style="edgeStyle=orthogonalEdgeStyle;rounded=0;orthogonalLoop=1;jettySize=auto;html=1;exitX=0.75;exitY=0;exitDx=0;exitDy=0;entryX=0.746;entryY=-0.067;entryDx=0;entryDy=0;entryPerimeter=0;" parent="VPPW3XwU0snODaN7bdkU-39" source="VPPW3XwU0snODaN7bdkU-40" target="VPPW3XwU0snODaN7bdkU-40" edge="1">
                    <mxGeometry relative="1" as="geometry"/>
                </mxCell>
                <mxCell id="2CoFyaPbzRQ52VO72m4Z-1" value="temp" style="swimlane;" parent="VPPW3XwU0snODaN7bdkU-28" vertex="1">
                    <mxGeometry x="20" y="390" width="410" height="290" as="geometry"/>
                </mxCell>
                <mxCell id="2CoFyaPbzRQ52VO72m4Z-5" value="Essa pasta terÃ¡ o conteÃºdo da ultima versÃ£o do versionador&amp;nbsp;" style="html=1;whiteSpace=wrap;container=1;recursiveResize=0;collapsible=0;" parent="2CoFyaPbzRQ52VO72m4Z-1" vertex="1">
                    <mxGeometry x="10" y="30" width="350" height="50" as="geometry"/>
                </mxCell>
                <mxCell id="2" value="snapshot-temp" style="swimlane;" vertex="1" parent="VPPW3XwU0snODaN7bdkU-28">
                    <mxGeometry x="510" y="390" width="660" height="290" as="geometry"/>
                </mxCell>
                <mxCell id="3" value="Essa pasta terÃ¡ o conteÃºdo da snapshot que ainda nÃ£o foi registrada&amp;nbsp;" style="html=1;whiteSpace=wrap;container=1;recursiveResize=0;collapsible=0;" vertex="1" parent="2">
                    <mxGeometry x="10" y="30" width="350" height="50" as="geometry"/>
                </mxCell>
                <mxCell id="VPPW3XwU0snODaN7bdkU-44" value="v1.0.0" style="text;html=1;align=center;verticalAlign=middle;resizable=0;points=[];autosize=1;strokeColor=none;fillColor=none;" parent="1" vertex="1">
                    <mxGeometry x="20" y="110" width="60" height="30" as="geometry"/>
                </mxCell>
            </root>
        </mxGraphModel>
    </diagram>
</mxfile>
